<?xml version="1.0" encoding="UTF-8" standalone="no"?>
<svg
   xmlns:dc="http://purl.org/dc/elements/1.1/"
   xmlns:cc="http://creativecommons.org/ns#"
   xmlns:rdf="http://www.w3.org/1999/02/22-rdf-syntax-ns#"
   xmlns:svg="http://www.w3.org/2000/svg"
   xmlns="http://www.w3.org/2000/svg"
   version="1.1"
   id="svg10"
   width="747.92566"
   height="453.7959"
   viewBox="0 0 747.92566 453.7959">
  <metadata
     id="metadata16">
    <rdf:RDF>
      <cc:Work
         rdf:about="">
        <dc:format>image/svg+xml</dc:format>
        <dc:type
           rdf:resource="http://purl.org/dc/dcmitype/StillImage" />
        <dc:title></dc:title>
      </cc:Work>
    </rdf:RDF>
  </metadata>
  <defs
     id="defs14" />
  <g
     id="g18"
     transform="translate(-1.0973675,-1.3943124)">
    <path
       style="fill:#000000"
       d="M 139.65143,454.38639 C 101.07353,450.91193 63.095025,431.33361 38.440125,402.21086 20.492225,381.0106 7.7189252,354.54384 2.6505252,328.05328 c -2.11070003,-11.03164 -2.05860003,-45.4866 0.086,-56.7985 3.6784,-19.40337 13.1967998,-42.3201 24.5222998,-59.04089 8.2839,-12.23025 29.3531,-33.34539 41.3927,-41.48302 28.6848,-19.38814 61.266685,-28.11043 94.500005,-25.29797 14.41213,1.21966 24.70639,3.26661 37.57586,7.4717 45.26617,14.79069 81.42477,51.74064 96.97416,99.09649 5.46995,16.65879 6.44998,24.03125 6.44998,48.52113 0,24.83104 -1.35316,33.74893 -7.71911,50.87209 -15.26975,41.07265 -42.55611,71.62488 -79.35794,88.85622 -17.60123,8.24123 -33.07502,12.44654 -51.92295,14.11107 -12.45705,1.10012 -13.5485,1.10119 -25.5,0.0248 z m 38.5,-26.42699 c 25.08437,-5.37388 45.93546,-16.63016 63.77379,-34.42772 26.497,-26.43644 39.61779,-57.48126 39.5749,-93.63737 -0.0234,-19.74286 -3.46468,-35.64928 -11.8249,-54.65782 -5.87863,-13.3662 -12.23841,-22.50482 -24.47839,-35.17396 -17.11949,-17.71976 -32.20625,-27.67215 -51.5454,-34.00336 -30.10092,-9.85436 -56.12367,-9.44524 -85.69588,1.34728 -35.634325,13.00491 -65.892325,44.97676 -77.593025,81.98786 -5.1127,16.17246 -5.6684,20.15379 -5.5824,40 0.1187,27.40192 2.3704,37.09618 13.994,60.24709 8.439,16.80833 17.1611,28.07243 30.1801,38.97603 21.3868,17.91175 41.443235,27.00791 68.697205,31.15615 6.27139,0.95455 33.2084,-0.25208 40.5,-1.81418 z M 148.4105,310.44879 c -2.85088,-1.30989 -4.77624,-3.07114 -5.87414,-5.37347 -1.55026,-3.25092 -1.51857,-3.77428 0.62391,-10.30295 6.80481,-20.73595 32.04171,-86.144 38.15091,-98.87806 3.51454,-7.32572 4.98327,-8.5 10.63138,-8.5 3.68068,0 4.97043,0.56156 7.80887,3.4 1.97118,1.97118 3.4,4.40507 3.4,5.79164 0,3.12947 -6.81387,23.1336 -16.79557,49.30836 -10.26425,26.9157 -21.61571,55.46087 -23.51713,59.13781 -3.40586,6.58621 -8.07101,8.3376 -14.42823,5.41667 z m 430.74093,143.33418 c -20.33172,-3.67344 -36.73908,-8.7212 -49.96888,-15.37301 -28.65476,-14.40733 -53.46681,-39.82423 -68.08763,-69.74743 -7.01113,-14.34907 -6.19228,-22.38086 2.5768,-25.27492 7.73195,-2.55177 10.75678,-0.0859 19.02167,15.5067 6.13998,11.58373 11.07963,18.85623 18.88149,27.79867 16.6026,19.02978 40.52323,33.76826 65.57655,40.4044 8.39958,2.22489 11.64292,2.52965 28,2.63104 19.47603,0.12071 27.79978,-0.97875 42,-5.54769 32.28148,-10.38662 60.19968,-35.09373 75.9759,-67.23732 10.73606,-21.8744 12.49205,-31.33302 11.78462,-63.47748 -0.4423,-20.09761 -0.66199,-22.14703 -3.21512,-29.99251 -6.93069,-21.29723 -19.54626,-42.16085 -34.51393,-57.07911 -16.31495,-16.26109 -34.98275,-27.07633 -57.08694,-33.07347 -9.83753,-2.66905 -13.69119,-3.17815 -27.44453,-3.62568 -18.20636,-0.59242 -28.26928,0.71064 -43.72356,5.66182 -27.20183,8.7148 -48.36128,24.95887 -69.73746,53.53733 -8.77539,11.73207 -10.22166,12.95758 -15.0639,12.76448 -5.30152,-0.21141 -7.87705,-1.78561 -9.57668,-5.85339 -2.38604,-5.71061 0.0614,-12.86271 8.73532,-25.52697 21.31578,-31.12187 57.86065,-55.37532 94.67787,-62.83413 13.73869,-2.78332 25.84156,-3.42899 39.68841,-2.1173 29.97936,2.8399 51.14655,9.96155 72.72272,24.46739 29.08868,19.55657 51.13224,48.51943 62.21837,81.74822 4.60174,13.79295 5.49786,19.88875 6.22594,42.3517 0.75942,23.42975 -0.50503,35.48296 -5.32645,50.77356 -17.41917,55.24304 -58.64786,93.92732 -113.84058,106.81495 -7.12367,1.6634 -13.06537,2.16932 -28.5,2.42668 -10.725,0.17884 -20.625,0.1219 -22,-0.12653 z M 384.84991,336.36784 c -24.61207,-6.23918 -40.7785,-31.10635 -36.87661,-56.72353 2.48748,-16.33119 12.98447,-30.59045 27.96034,-37.98172 7.54113,-3.7219 7.77717,-3.7673 19.17645,-3.68836 13.37733,0.0926 18.41581,1.20056 88.04134,19.35971 67.33088,17.56068 86.96056,22.43314 87.63983,21.75388 0.34859,-0.34859 -6.13358,-12.68473 -14.40482,-27.41366 -17.42419,-31.02792 -23.23501,-42.37937 -23.23501,-45.38962 0,-3.74102 3.79482,-8.59097 8.05603,-10.29597 3.61664,-1.44709 4.31135,-1.45564 6.9606,-0.0857 4.71069,2.43599 14.83237,18.61605 42.53303,67.9914 15.46023,27.55725 18.80521,34.79486 18.01868,38.98741 -1.15488,6.15602 -4.74019,7.92467 -21.23078,10.47325 -11.05708,1.70885 -27.44824,3.91143 -100.83756,13.55017 -73.42159,9.64298 -93.66693,11.52483 -101.80152,9.4627 z m 23.1274,-26.04438 c 10.47318,-5.23351 14.15793,-11.48078 14.16854,-24.02187 0.007,-8.39511 -2.78137,-13.98497 -9.56707,-19.17846 -11.87961,-9.09215 -24.10695,-8.24385 -34.42511,2.38831 -4.11279,4.23795 -8.00224,12.92983 -8.00224,17.88287 0,5.24076 3.77578,13.3643 8.24044,17.72919 8.97551,8.77495 18.92997,10.52455 29.58544,5.19996 z m 86.67412,-9.48199 c 18.7,-2.55504 34.1875,-4.82589 34.41667,-5.04634 0.96804,-0.93122 -1.69744,-1.80096 -20.07566,-6.55059 -48.90936,-12.64006 -61.39738,-15.63607 -62.1507,-14.9106 -0.44534,0.42887 -0.9611,6.5804 -1.14614,13.67006 -0.18505,7.08967 -0.67431,14.19932 -1.08726,15.79921 l -0.75082,2.90891 8.39696,-0.61257 c 4.61832,-0.3369 23.69695,-2.70304 42.39695,-5.25808 z M 338.49147,246.14431 c -5.46929,-5.93777 -19.5786,-24.8637 -59.08099,-79.25 -38.06805,-52.41154 -39.64553,-54.44565 -41.10212,-53 -0.55416,0.55 -2.42815,4.6 -4.16441,9 -8.75435,22.1851 -14.21458,27.11073 -23.24832,20.97214 -7.16897,-4.87144 -6.64027,-8.28909 6.82387,-44.11082 10.19523,-27.124701 16.43193,-44.941109 16.43193,-46.94117 0,-1.400766 1.30349,-1.004494 -26.5,-8.056252 -26.50248,-6.721784 -31.64627,-8.560586 -34.9585,-12.496942 -3.12762,-3.716963 -3.1875,-6.162426 -0.2915,-11.90399 2.94274,-5.834232 5.59458,-6.739109 15.02008,-5.12525 11.132,1.906049 63.7061,15.085223 68.39558,17.145271 9.13727,4.013925 9.41964,10.096863 1.42849,30.773402 -2.80178,7.249419 -5.09415,13.803871 -5.09415,14.565451 0,2.406302 11.74489,2.678162 115.7019,2.678162 h 100.40015 l 1.37694,-3.295468 c 0.75731,-1.812508 4.79304,-13.368817 8.96829,-25.680686 5.38828,-15.888848 7.28108,-22.695541 6.52223,-23.454531 -0.59004,-0.590152 -6.84283,-1.293366 -13.9539,-1.569315 -12.58049,-0.488192 -12.95689,-0.569083 -15.93775,-3.425161 -3.51846,-3.371181 -4.80366,-8.30762 -3.05116,-11.719542 0.66537,-1.295414 2.82289,-4.0427966 4.79448,-6.1052966 l 3.58472,-3.75 30.54705,0.03368 c 33.94684,0.03742 49.72377,1.05317 53.35947,3.435377 7.33047,4.8031066 5.8294,18.2855136 -2.28687,20.5403406 -1.93905,0.538699 -9.38435,0.981963 -16.5451,0.98503 l -13.01954,0.0056 -10.76225,30.25 c -5.91924,16.6375 -10.74794,30.861888 -10.73046,31.609758 0.0175,0.74787 4.4759,9.07287 9.90757,18.500002 17.32507,30.06914 20.03728,36.51925 17.70406,42.10342 -1.5245,3.64865 -6.65958,6.53682 -11.62226,6.53682 -4.49991,0 -7.59406,-3.64058 -17.35758,-20.42292 -4.455,-7.65761 -8.54999,-14.07005 -9.09999,-14.24988 -0.55,-0.17983 -5.66875,12.83548 -11.375,28.92292 -13.66323,38.52024 -25.84576,71.28219 -28.2821,76.05781 -3.52918,6.91777 -12.77646,8.58505 -17.82282,3.21344 -2.04204,-2.17365 -2.24132,-3.1526 -1.77813,-8.73469 0.52282,-6.30065 1.40357,-9.03053 26.16826,-81.10834 5.82439,-16.95191 10.58979,-31.46441 10.58979,-32.25 0,-1.22792 -13.54063,-1.42834 -96.5,-1.42834 -53.075,0 -96.5,0.23475 -96.5,0.52166 0,0.28692 15.66164,22.22442 34.80365,48.75 39.78335,55.12883 56.67281,79.28214 57.62255,82.40494 0.99093,3.25819 -1.87025,9.01403 -5.61602,11.29777 -5.38252,3.28162 -8.93961,2.69423 -13.47014,-2.22437 z"
       id="path22" />
  </g>
</svg>
