<?xml version="1.0" encoding="UTF-8" standalone="no"?>
<svg
   xmlns:dc="http://purl.org/dc/elements/1.1/"
   xmlns:cc="http://creativecommons.org/ns#"
   xmlns:rdf="http://www.w3.org/1999/02/22-rdf-syntax-ns#"
   xmlns:svg="http://www.w3.org/2000/svg"
   xmlns="http://www.w3.org/2000/svg"
   xmlns:sodipodi="http://sodipodi.sourceforge.net/DTD/sodipodi-0.dtd"
   xmlns:inkscape="http://www.inkscape.org/namespaces/inkscape"
   version="1.1"
   id="svg10"
   width="747.92566"
   height="453.7959"
   viewBox="0 0 747.92566 453.7959"
   sodipodi:docname="bike_icon_white.svg"
   inkscape:version="1.0.2-2 (e86c870879, 2021-01-15)">
  <sodipodi:namedview
     pagecolor="#ffffff"
     bordercolor="#666666"
     borderopacity="1"
     objecttolerance="10"
     gridtolerance="10"
     guidetolerance="10"
     inkscape:pageopacity="0"
     inkscape:pageshadow="2"
     inkscape:window-width="1920"
     inkscape:window-height="1017"
     id="namedview45"
     showgrid="false"
     inkscape:zoom="1.7394777"
     inkscape:cx="373.96283"
     inkscape:cy="226.89795"
     inkscape:window-x="-8"
     inkscape:window-y="-8"
     inkscape:window-maximized="1"
     inkscape:current-layer="svg10" />
  <metadata
     id="metadata16">
    <rdf:RDF>
      <cc:Work
         rdf:about="">
        <dc:format>image/svg+xml</dc:format>
        <dc:type
           rdf:resource="http://purl.org/dc/dcmitype/StillImage" />
        <dc:title></dc:title>
      </cc:Work>
    </rdf:RDF>
  </metadata>
  <defs
     id="defs14" />
  <g
     id="g18"
     transform="translate(-1.0973675,-1.3943124)">
    <path
       style="fill:#000000"
       d="M 139.65143,454.38639 C 101.07353,450.91193 63.095025,431.33361 38.440125,402.21086 20.492225,381.0106 7.7189252,354.54384 2.6505252,328.05328 c -2.11070003,-11.03164 -2.05860003,-45.4866 0.086,-56.7985 3.6784,-19.40337 13.1967998,-42.3201 24.5222998,-59.04089 8.2839,-12.23025 29.3531,-33.34539 41.3927,-41.48302 28.6848,-19.38814 61.266685,-28.11043 94.500005,-25.29797 14.41213,1.21966 24.70639,3.26661 37.57586,7.4717 45.26617,14.79069 81.42477,51.74064 96.97416,99.09649 5.46995,16.65879 6.44998,24.03125 6.44998,48.52113 0,24.83104 -1.35316,33.74893 -7.71911,50.87209 -15.26975,41.07265 -42.55611,71.62488 -79.35794,88.85622 -17.60123,8.24123 -33.07502,12.44654 -51.92295,14.11107 -12.45705,1.10012 -13.5485,1.10119 -25.5,0.0248 z m 38.5,-26.42699 c 25.08437,-5.37388 45.93546,-16.63016 63.77379,-34.42772 26.497,-26.43644 39.61779,-57.48126 39.5749,-93.63737 -0.0234,-19.74286 -3.46468,-35.64928 -11.8249,-54.65782 -5.87863,-13.3662 -12.23841,-22.50482 -24.47839,-35.17396 -17.11949,-17.71976 -32.20625,-27.67215 -51.5454,-34.00336 -30.10092,-9.85436 -56.12367,-9.44524 -85.69588,1.34728 -35.634325,13.00491 -65.892325,44.97676 -77.593025,81.98786 -5.1127,16.17246 -5.6684,20.15379 -5.5824,40 0.1187,27.40192 2.3704,37.09618 13.994,60.24709 8.439,16.80833 17.1611,28.07243 30.1801,38.97603 21.3868,17.91175 41.443235,27.00791 68.697205,31.15615 6.27139,0.95455 33.2084,-0.25208 40.5,-1.81418 z M 148.4105,310.44879 c -2.85088,-1.30989 -4.77624,-3.07114 -5.87414,-5.37347 -1.55026,-3.25092 -1.51857,-3.77428 0.62391,-10.30295 6.80481,-20.73595 32.04171,-86.144 38.15091,-98.87806 3.51454,-7.32572 4.98327,-8.5 10.63138,-8.5 3.68068,0 4.97043,0.56156 7.80887,3.4 1.97118,1.97118 3.4,4.40507 3.4,5.79164 0,3.12947 -6.81387,23.1336 -16.79557,49.30836 -10.26425,26.9157 -21.61571,55.46087 -23.51713,59.13781 -3.40586,6.58621 -8.07101,8.3376 -14.42823,5.41667 z m 430.74093,143.33418 c -20.33172,-3.67344 -36.73908,-8.7212 -49.96888,-15.37301 -28.65476,-14.40733 -53.46681,-39.82423 -68.08763,-69.74743 -7.01113,-14.34907 -6.19228,-22.38086 2.5768,-25.27492 7.73195,-2.55177 10.75678,-0.0859 19.02167,15.5067 6.13998,11.58373 11.07963,18.85623 18.88149,27.79867 16.6026,19.02978 40.52323,33.76826 65.57655,40.4044 8.39958,2.22489 11.64292,2.52965 28,2.63104 19.47603,0.12071 27.79978,-0.97875 42,-5.54769 32.28148,-10.38662 60.19968,-35.09373 75.9759,-67.23732 10.73606,-21.8744 12.49205,-31.33302 11.78462,-63.47748 -0.4423,-20.09761 -0.66199,-22.14703 -3.21512,-29.99251 -6.93069,-21.29723 -19.54626,-42.16085 -34.51393,-57.07911 -16.31495,-16.26109 -34.98275,-27.07633 -57.08694,-33.07347 -9.83753,-2.66905 -13.69119,-3.17815 -27.44453,-3.62568 -18.20636,-0.59242 -28.26928,0.71064 -43.72356,5.66182 -27.20183,8.7148 -48.36128,24.95887 -69.73746,53.53733 -8.77539,11.73207 -10.22166,12.95758 -15.0639,12.76448 -5.30152,-0.21141 -7.87705,-1.78561 -9.57668,-5.85339 -2.38604,-5.71061 0.0614,-12.86271 8.73532,-25.52697 21.31578,-31.12187 57.86065,-55.37532 94.67787,-62.83413 13.73869,-2.78332 25.84156,-3.42899 39.68841,-2.1173 29.97936,2.8399 51.14655,9.96155 72.72272,24.46739 29.08868,19.55657 51.13224,48.51943 62.21837,81.74822 4.60174,13.79295 5.49786,19.88875 6.22594,42.3517 0.75942,23.42975 -0.50503,35.48296 -5.32645,50.77356 -17.41917,55.24304 -58.64786,93.92732 -113.84058,106.81495 -7.12367,1.6634 -13.06537,2.16932 -28.5,2.42668 -10.725,0.17884 -20.625,0.1219 -22,-0.12653 z M 384.84991,336.36784 c -24.61207,-6.23918 -40.7785,-31.10635 -36.87661,-56.72353 2.48748,-16.33119 12.98447,-30.59045 27.96034,-37.98172 7.54113,-3.7219 7.77717,-3.7673 19.17645,-3.68836 13.37733,0.0926 18.41581,1.20056 88.04134,19.35971 67.33088,17.56068 86.96056,22.43314 87.63983,21.75388 0.34859,-0.34859 -6.13358,-12.68473 -14.40482,-27.41366 -17.42419,-31.02792 -23.23501,-42.37937 -23.23501,-45.38962 0,-3.74102 3.79482,-8.59097 8.05603,-10.29597 3.61664,-1.44709 4.31135,-1.45564 6.9606,-0.0857 4.71069,2.43599 14.83237,18.61605 42.53303,67.9914 15.46023,27.55725 18.80521,34.79486 18.01868,38.98741 -1.15488,6.15602 -4.74019,7.92467 -21.23078,10.47325 -11.05708,1.70885 -27.44824,3.91143 -100.83756,13.55017 -73.42159,9.64298 -93.66693,11.52483 -101.80152,9.4627 z m 23.1274,-26.04438 c 10.47318,-5.23351 14.15793,-11.48078 14.16854,-24.02187 0.007,-8.39511 -2.78137,-13.98497 -9.56707,-19.17846 -11.87961,-9.09215 -24.10695,-8.24385 -34.42511,2.38831 -4.11279,4.23795 -8.00224,12.92983 -8.00224,17.88287 0,5.24076 3.77578,13.3643 8.24044,17.72919 8.97551,8.77495 18.92997,10.52455 29.58544,5.19996 z m 86.67412,-9.48199 c 18.7,-2.55504 34.1875,-4.82589 34.41667,-5.04634 0.96804,-0.93122 -1.69744,-1.80096 -20.07566,-6.55059 -48.90936,-12.64006 -61.39738,-15.63607 -62.1507,-14.9106 -0.44534,0.42887 -0.9611,6.5804 -1.14614,13.67006 -0.18505,7.08967 -0.67431,14.19932 -1.08726,15.79921 l -0.75082,2.90891 8.39696,-0.61257 c 4.61832,-0.3369 23.69695,-2.70304 42.39695,-5.25808 z M 338.49147,246.14431 c -5.46929,-5.93777 -19.5786,-24.8637 -59.08099,-79.25 -38.06805,-52.41154 -39.64553,-54.44565 -41.10212,-53 -0.55416,0.55 -2.42815,4.6 -4.16441,9 -8.75435,22.1851 -14.21458,27.11073 -23.24832,20.97214 -7.16897,-4.87144 -6.64027,-8.28909 6.82387,-44.11082 10.19523,-27.124701 16.43193,-44.941109 16.43193,-46.94117 0,-1.400766 1.30349,-1.004494 -26.5,-8.056252 -26.50248,-6.721784 -31.64627,-8.560586 -34.9585,-12.496942 -3.12762,-3.716963 -3.1875,-6.162426 -0.2915,-11.90399 2.94274,-5.834232 5.59458,-6.739109 15.02008,-5.12525 11.132,1.906049 63.7061,15.085223 68.39558,17.145271 9.13727,4.013925 9.41964,10.096863 1.42849,30.773402 -2.80178,7.249419 -5.09415,13.803871 -5.09415,14.565451 0,2.406302 11.74489,2.678162 115.7019,2.678162 h 100.40015 l 1.37694,-3.295468 c 0.75731,-1.812508 4.79304,-13.368817 8.96829,-25.680686 5.38828,-15.888848 7.28108,-22.695541 6.52223,-23.454531 -0.59004,-0.590152 -6.84283,-1.293366 -13.9539,-1.569315 -12.58049,-0.488192 -12.95689,-0.569083 -15.93775,-3.425161 -3.51846,-3.371181 -4.80366,-8.30762 -3.05116,-11.719542 0.66537,-1.295414 2.82289,-4.0427966 4.79448,-6.1052966 l 3.58472,-3.75 30.54705,0.03368 c 33.94684,0.03742 49.72377,1.05317 53.35947,3.435377 7.33047,4.8031066 5.8294,18.2855136 -2.28687,20.5403406 -1.93905,0.538699 -9.38435,0.981963 -16.5451,0.98503 l -13.01954,0.0056 -10.76225,30.25 c -5.91924,16.6375 -10.74794,30.861888 -10.73046,31.609758 0.0175,0.74787 4.4759,9.07287 9.90757,18.500002 17.32507,30.06914 20.03728,36.51925 17.70406,42.10342 -1.5245,3.64865 -6.65958,6.53682 -11.62226,6.53682 -4.49991,0 -7.59406,-3.64058 -17.35758,-20.42292 -4.455,-7.65761 -8.54999,-14.07005 -9.09999,-14.24988 -0.55,-0.17983 -5.66875,12.83548 -11.375,28.92292 -13.66323,38.52024 -25.84576,71.28219 -28.2821,76.05781 -3.52918,6.91777 -12.77646,8.58505 -17.82282,3.21344 -2.04204,-2.17365 -2.24132,-3.1526 -1.77813,-8.73469 0.52282,-6.30065 1.40357,-9.03053 26.16826,-81.10834 5.82439,-16.95191 10.58979,-31.46441 10.58979,-32.25 0,-1.22792 -13.54063,-1.42834 -96.5,-1.42834 -53.075,0 -96.5,0.23475 -96.5,0.52166 0,0.28692 15.66164,22.22442 34.80365,48.75 39.78335,55.12883 56.67281,79.28214 57.62255,82.40494 0.99093,3.25819 -1.87025,9.01403 -5.61602,11.29777 -5.38252,3.28162 -8.93961,2.69423 -13.47014,-2.22437 z"
       id="path22" />
  </g>
  <path
     style="fill:#ffffff;stroke-width:0.574885"
     d="M 136.81098,452.51964 C 102.8793,448.8117 69.652879,432.99907 45.664101,409.14238 26.484148,390.06803 10.853024,362.55722 4.0196881,335.84812 1.3173626,325.28569 0.88433184,321.58577 0.48620422,305.65722 -0.13185717,280.92942 1.3187797,268.40529 6.6737596,252.23676 10.981264,239.23092 18.16321,223.83448 24.539336,213.93708 c 6.511261,-10.10716 23.078453,-28.07376 34.961283,-37.91442 15.742341,-13.03687 37.008017,-23.44187 58.093101,-28.42413 31.24308,-7.38254 67.82873,-3.41186 98.12502,10.64961 18.31988,8.50284 37.70205,23.53501 51.4534,39.90555 13.11778,15.61631 24.58224,37.10266 30.52072,57.20108 4.42151,14.96432 5.22647,22.97611 4.82294,48.00291 -0.303,18.7916 -0.84736,24.32975 -3.30252,33.59897 -2.27171,8.5766 -6.36297,18.99537 -11.75134,29.92585 -8.77213,17.79458 -18.25791,30.94557 -31.73597,43.99849 -14.08434,13.64007 -28.56446,23.06528 -47.61914,30.99562 -22.23584,9.25431 -48.34169,13.15139 -71.29585,10.64303 z m 22.30635,-24.11803 c 10.67039,-0.36505 15.9467,-1.01848 23.45367,-2.90456 21.66113,-5.44224 40.47471,-15.88167 56.61171,-31.41317 22.73009,-21.87721 35.76951,-46.69991 40.25997,-76.64151 1.3842,-9.22965 1.3858,-28.89759 0.003,-37.94242 -2.43759,-15.94512 -8.82345,-34.40139 -16.37428,-47.32458 -6.04769,-10.35093 -20.21325,-26.36043 -32.25486,-36.45372 -17.24937,-14.45844 -37.97824,-23.4227 -62.94993,-27.22287 -8.51626,-1.296 -24.82953,-1.28317 -33.34334,0.0262 -18.64104,2.86692 -37.394622,9.83404 -51.452227,19.11495 -29.245802,19.30824 -48.986485,47.43287 -57.4151,81.7995 -2.320599,9.46196 -3.004932,26.38073 -1.766084,43.66289 1.059818,14.78464 3.387624,23.70998 9.800011,37.57549 8.568443,18.52755 16.298551,30.02712 27.320608,40.64307 15.286796,14.72353 32.32456,25.32666 50.229942,31.25963 13.63548,4.51814 26.60573,6.81369 35.64288,6.30828 1.73903,-0.0972 7.2444,-0.3165 12.23416,-0.4872 z"
     id="path47" />
  <path
     style="fill:#ffffff;stroke-width:0.574885"
     d="m 148.94743,309.38104 c -4.43791,-1.68363 -8.40199,-6.08501 -8.38143,-9.30604 0.0187,-2.92562 14.69038,-42.8978 28.49426,-77.63087 9.36722,-23.56964 12.8412,-31.33654 15.04515,-33.63697 2.8859,-3.01223 8.78632,-3.44489 12.35221,-0.90576 2.53899,1.80792 5.03965,5.56819 5.03965,7.57817 0,4.81949 -12.21034,38.60809 -31.1352,86.1577 -8.41679,21.1476 -10.45613,25.29373 -13.38509,27.21286 -2.00092,1.31105 -5.3836,1.53471 -8.02955,0.53091 z"
     id="path49" />
  <path
     style="fill:#ffffff;stroke-width:0.574885"
     d="m 341.48182,247.68686 c -4.32311,-2.63806 -14.48163,-15.92109 -60.08448,-78.56487 -28.98965,-39.82254 -39.91851,-54.50157 -41.92747,-56.31459 -0.89482,-0.80755 -1.49522,-0.96919 -2.12481,-0.57205 -0.48265,0.30444 -2.90706,5.26494 -5.38757,11.02331 -6.48623,15.05742 -10.14283,20.2704 -14.88356,21.21854 -2.24324,0.44865 -7.42913,-1.98269 -9.51415,-4.46059 -3.85781,-4.58475 -3.02186,-8.08866 10.88614,-45.629702 9.1758,-24.76767 14.67003,-40.725076 14.67003,-42.607505 0,-0.731918 -0.49407,-1.595182 -1.09794,-1.918363 -0.60387,-0.323182 -10.11104,-2.908043 -21.12704,-5.744135 -23.92269,-6.15895 -30.49652,-8.098577 -34.66638,-10.22841 -3.94072,-2.012796 -6.63747,-5.580134 -6.55637,-8.672956 0.0635,-2.419754 2.90879,-8.44839 4.78881,-10.146384 2.22419,-2.008845 7.54092,-1.851498 18.67641,0.552724 11.32101,2.444275 39.86226,9.497861 52.34254,12.935756 13.27962,3.658084 15.80314,5.664709 15.8072,12.569409 0.003,4.778256 -0.84875,7.900856 -6.02863,22.106582 -2.37443,6.511828 -4.31716,12.339278 -4.31716,12.949881 0,0.655295 0.53001,1.266122 1.2935,1.490741 3.66265,1.077582 32.4155,1.426652 119.53481,1.4512 l 95.82081,0.027 1.23719,-3.30559 c 2.6859,-7.176321 11.11427,-31.881322 13.2533,-38.847655 2.52069,-8.209351 2.77305,-10.416723 1.25774,-11.001288 -0.55333,-0.213458 -4.88652,-0.642804 -9.62933,-0.954101 -14.85354,-0.974923 -15.64462,-1.083924 -17.64368,-2.431096 -2.33309,-1.572268 -4.30151,-4.439815 -5.1108,-7.4453 -0.86228,-3.202264 0.0852,-5.3392622 4.6456,-10.4778353 l 3.73675,-4.21050951 27.01961,-0.0426168 c 28.4298,-0.0448413 45.63594,0.60876271 52.27306,1.98567901 4.38105,0.90888 6.7802,2.6308444 8.16069,5.8572457 1.60873,3.7598489 0.65142,10.1058919 -1.95975,12.9911989 -2.43785,2.693791 -3.68554,2.906198 -19.02519,3.23883 l -14.59041,0.316386 -6.5388,18.396326 c -3.59635,10.11798 -8.46877,24.046713 -10.82759,30.952746 l -4.28879,12.556413 2.51823,4.977586 c 1.38501,2.737666 5.9122,10.927643 10.0604,18.199943 9.44264,16.55409 14.11023,25.94958 15.31317,30.82421 0.90029,3.64824 0.89188,3.89537 -0.2179,6.40421 -1.31573,2.97442 -4.79002,5.38704 -9.07304,6.30052 -5.44313,1.16091 -8.24126,-1.74921 -19.10364,-19.86821 -7.74747,-12.92319 -9.2291,-15.06764 -9.9214,-14.35985 -0.87466,0.89425 -6.19502,14.91742 -16.58271,43.70799 -17.25216,47.81616 -22.22113,60.60808 -24.67646,63.52608 -4.19276,4.98281 -11.90416,5.10647 -15.98527,0.25634 -1.44028,-1.71167 -1.48921,-1.99874 -1.18868,-6.97367 0.40219,-6.65765 1.27614,-9.47102 19.55936,-62.96448 16.88331,-49.39757 17.40812,-51.04957 16.50467,-51.95322 -0.76349,-0.76366 -189.84425,-1.28332 -191.87712,-0.52735 -1.42789,0.531 -5.41272,-5.28509 33.79011,49.3187 31.88894,44.41663 44.55428,62.29636 51.9704,73.36691 4.7654,7.11365 5.49516,8.52307 5.49516,10.61319 0,3.39389 -2.84645,7.51335 -6.61118,9.56788 -3.37174,1.84007 -5.66444,1.99355 -8.04839,0.5388 z"
     id="path51" />
  <path
     style="fill:#ffffff;stroke-width:0.574885"
     d="m 576.60987,451.8582 c -0.63238,-0.14375 -5.28895,-1.16988 -10.34794,-2.28028 -31.39584,-6.89107 -54.67788,-19.43133 -76.17229,-41.0282 -11.98212,-12.03924 -21.2498,-24.84598 -28.48868,-39.36768 -5.96211,-11.96041 -7.10633,-17.0642 -4.90992,-21.90052 1.21607,-2.67767 3.67959,-4.4276 7.63182,-5.42117 5.88778,-1.48015 8.94879,1.35603 16.85606,15.61801 9.01831,16.26593 15.07992,24.42307 26.24397,35.31666 19.92573,19.44302 48.17426,33.33418 72.02244,35.4169 7.97007,0.69605 31.76879,0.26403 38.26883,-0.6947 15.52472,-2.28982 34.57841,-9.72349 48.00114,-18.72732 20.78796,-13.94435 35.78134,-31.28754 47.16333,-54.55488 9.30324,-19.01791 10.66961,-25.31579 11.03825,-50.87734 0.41989,-29.11475 -0.46663,-36.01813 -6.52485,-50.80973 -9.23785,-22.55488 -22.75132,-41.39347 -40.17725,-56.00952 -17.14746,-14.38247 -41.47863,-25.24845 -62.01889,-27.69682 -7.70093,-0.91793 -30.45193,-0.97094 -36.57393,-0.0852 -21.33594,3.08689 -43.43321,12.59798 -60.0755,25.85765 -9.41806,7.50381 -19.51819,18.21249 -30.17818,31.99646 -9.36168,12.10519 -11.8057,14.0257 -16.88052,13.26469 -7.3931,-1.10867 -10.43746,-8.28693 -7.02935,-16.57444 4.6468,-11.29964 17.41078,-27.94404 30.23031,-39.4207 28.51948,-25.53202 64.85975,-40.34047 98.99646,-40.34047 12.28917,0 33.39378,3.04644 45.87462,6.62198 46.30751,13.26627 85.8665,52.47734 101.77668,100.88156 4.98879,15.17762 5.9177,22.99668 5.9418,50.01501 0.0155,17.30894 -0.10781,19.92796 -1.21734,25.86984 -2.58843,13.86175 -7.50071,28.0276 -14.55273,41.96662 -15.45186,30.54212 -38.77297,53.78595 -68.66556,68.43801 -17.76467,8.70747 -32.71602,13.15933 -48.14896,14.33664 -7.43787,0.5674 -35.80002,0.70812 -38.08382,0.18895 z"
     id="path53" />
  <path
     style="fill:#ffffff;stroke-width:0.574885"
     d="m 386.32286,335.15009 c -6.9739,-0.92556 -17.02697,-6.13719 -23.35685,-12.10848 -21.3869,-20.17531 -21.81729,-52.60288 -0.96804,-72.93657 4.87709,-4.75649 8.79381,-7.52118 14.63637,-10.33134 5.55761,-2.6731 9.72359,-3.29374 19.3571,-2.88379 12.64353,0.53804 18.95745,1.96597 88.34935,19.98078 48.63235,12.62542 79.47949,20.4035 82.98962,20.92574 2.74587,0.40854 2.78622,0.39243 2.38459,-0.95255 -0.59357,-1.98773 -5.93834,-11.9826 -18.25459,-34.13659 -16.59326,-29.8473 -19.58489,-36.29071 -18.62507,-40.11494 0.65534,-2.61109 4.79649,-6.59076 8.17262,-7.85393 3.14154,-1.1754 3.18207,-1.17597 5.34022,-0.075 4.56125,2.32697 11.43798,12.75175 31.12039,47.17693 20.35389,35.59961 28.95075,52.03276 29.64603,56.66927 0.78283,5.22023 -1.78555,8.60961 -7.97208,10.52044 -5.99596,1.85196 -13.51216,2.95409 -80.8835,11.8602 -98.77785,13.05787 -122.04462,15.57257 -131.93616,14.25979 z m 15.84872,-24.08629 c 8.04705,-2.36363 14.94323,-7.90221 17.23256,-13.8401 1.75421,-4.54993 2.25437,-15.23263 0.92696,-19.79873 -1.82542,-6.27922 -6.92853,-11.74376 -14.46214,-15.48641 -9.67148,-4.80472 -19.17204,-3.16673 -27.65413,4.76785 -4.18473,3.91461 -7.80272,10.40067 -8.98025,16.09913 -2.17896,10.54466 7.40612,24.57009 19.38782,28.36935 3.23728,1.0265 9.86112,0.97219 13.54918,-0.11109 z m 53.99983,-6.61965 c 15.4099,-1.61095 71.6914,-9.34886 72.28002,-9.93748 0.67866,-0.67866 -0.7681,-1.552 -4.32298,-2.60961 -13.10878,-3.89995 -72.63913,-18.76808 -76.54779,-19.11834 -1.84725,-0.16554 -2.00785,-0.0429 -2.40259,1.8347 -0.23266,1.10666 -0.59027,6.15127 -0.79469,11.21026 -0.38856,9.61592 -1.0907,17.1194 -1.76686,18.88142 -0.43613,1.13653 0.3276,1.12183 13.55489,-0.26095 z"
     id="path55" />
</svg>
