<?xml version="1.0" encoding="UTF-8" standalone="no"?>
<svg
   xmlns:dc="http://purl.org/dc/elements/1.1/"
   xmlns:cc="http://creativecommons.org/ns#"
   xmlns:rdf="http://www.w3.org/1999/02/22-rdf-syntax-ns#"
   xmlns:svg="http://www.w3.org/2000/svg"
   xmlns="http://www.w3.org/2000/svg"
   xmlns:sodipodi="http://sodipodi.sourceforge.net/DTD/sodipodi-0.dtd"
   xmlns:inkscape="http://www.inkscape.org/namespaces/inkscape"
   id="Слой_1"
   data-name="Слой 1"
   viewBox="0 0 670.85052 670.85064"
   version="1.1"
   width="670.85052"
   height="670.85065"
   sodipodi:docname="site_logo+.svg"
   inkscape:version="1.0.2-2 (e86c870879, 2021-01-15)">
  <sodipodi:namedview
     pagecolor="#ffffff"
     bordercolor="#666666"
     borderopacity="1"
     objecttolerance="10"
     gridtolerance="10"
     guidetolerance="10"
     inkscape:pageopacity="0"
     inkscape:pageshadow="2"
     inkscape:window-width="1920"
     inkscape:window-height="1017"
     id="namedview186"
     showgrid="false"
     fit-margin-top="0"
     fit-margin-left="0"
     fit-margin-right="0"
     fit-margin-bottom="0"
     inkscape:zoom="0.77801667"
     inkscape:cx="67.596129"
     inkscape:cy="444.48316"
     inkscape:window-x="-8"
     inkscape:window-y="-8"
     inkscape:window-maximized="1"
     inkscape:current-layer="Слой_1"
     inkscape:document-rotation="0" />
  <metadata
     id="metadata175">
    <rdf:RDF>
      <cc:Work
         rdf:about="">
        <dc:format>image/svg+xml</dc:format>
        <dc:type
           rdf:resource="http://purl.org/dc/dcmitype/StillImage" />
        <dc:title></dc:title>
      </cc:Work>
    </rdf:RDF>
  </metadata>
  <defs
     id="defs4">
    <style
       id="style2">.cls-1{fill:#ef6100;}.cls-2{fill:#fff;}</style>
  </defs>
  <path
     class="cls-1"
     d="m 295.62929,315.59926 c 1.7,1.77 3.2,3.73 4.89,5.73 l 2.31,-5.06 c -1.62,-5.37 -3.23,-10.73 -4.87,-16.16 -0.33,0.16 -0.6,0.2 -0.72,0.35 -2.42,3.2 -4.81,6.41 -7.37,9.82 2.06,1.88 4.01,3.5 5.76,5.32 z"
     id="path6" />
  <path
     class="cls-1"
     d="m 302.02929,292.43926 a 1.63,1.63 0 0 0 0.35,-0.11 l -1.55,-2.52 a 120.26,120.26 0 0 1 -4.45,-14 c 0,0 3.19,14.95 5.1,16.58 z"
     id="path8" />
  <path
     class="cls-1"
     d="m 308.00929,300.01926 c -1.16,-1 -1.37,-2.87 -3,-3.68 l -2.41,1 c 1.55,5.14 3,10.07 4.64,15.4 1.23,-3.24 2.36,-6.23 3.48,-9.2 a 7.72,7.72 0 0 0 -0.92,-1.56 34,34 0 0 0 12.47,-5.65 c -4.72,2.3 -11.3,3.55 -13.94,4 -0.13,-0.1 -0.21,-0.21 -0.32,-0.31 z"
     id="path10" />
  <path
     class="cls-1"
     d="m 375.82929,315.44926 a 15.88,15.88 0 0 0 3.74,4.58 c -0.54,-1.82 -1.09,-3.64 -1.67,-5.57 z"
     id="path12" />
  <path
     class="cls-1"
     d="m 356.82929,241.76926 c -0.9,-0.73 -1.78,-1.38 -2.6,-2.1 -1.68,-1.47 -3.27,-3 -5,-4.44 a 23.2,23.2 0 0 0 -2.95,-1.74 l -2.84,3 a 28.61,28.61 0 0 1 -3,1.22 30.74,30.74 0 0 1 -3.28,0.63 c -1.34,0.61 -2.56,1.58 -3.77,1.58 a 4.3,4.3 0 0 0 -2.85,1.14 11.6,11.6 0 0 1 -3.25,1.86 31.32,31.32 0 0 1 -4.69,0.72 c -1.42,2.24 -3.82,3.73 -6.34,5.44 0.65,0.29 1,0.48 1.33,0.6 a 76.4,76.4 0 0 1 9.25,3.5 96.33,96.33 0 0 0 9.27,4 51.49,51.49 0 0 1 6.23,2.86 c 1.68,0.87 3.21,2 4.9,2.86 a 11.36,11.36 0 0 1 6,6.07 l 0.18,0.43 c 0.07,1.35 0.32,2.66 0.48,4 a 6.65,6.65 0 0 1 -0.44,3.49 15,15 0 0 0 -1.16,3.08 c -0.21,1.11 -1,1.7 -1.57,2.53 -0.57,0.83 -1.08,1.62 -1.74,2.61 l 19.69,-2.67 c -0.09,-2.26 0,-4.2 -0.66,-6 -0.86,-0.51 -2.19,-0.27 -2.05,-1.93 l 0.91,-1.22 c 0,-0.26 0,-0.58 0,-0.9 0,-0.32 0,-0.62 0,-0.84 1.79,-1.73 1.79,-1.73 4.05,-1.6 l 1.22,0.93 c 2.52,-0.55 5.17,-0.69 8.24,-2 l -1.55,-0.88 c 0,-0.51 0.06,-1 0.09,-1.37 l 1.3,-0.42 c -3.49,-3.67 -7,-7.26 -10.35,-10.93 a 26.16,26.16 0 0 1 -2.69,-3.58 c -1.64,-2.51 -3.1,-5.14 -4.83,-7.58 a 12.84,12.84 0 0 0 -2,-2.27 l 5.53,-6.64 z"
     id="path14" />
  <path
     class="cls-2"
     d="m 125.12929,215.93926 -3,-4.33 a 0.66,0.66 0 0 1 0,-0.79 l 12.42,-17 a 0.61,0.61 0 0 1 0.77,-0.22 l 5.06,1.46 7,-9.56 -49.780001,-14.67 -8.52,11.64 29.050001,43 z m -9.87,-15.07 a 0.62,0.62 0 0 1 -0.55,-0.32 l -9.95,-14.71 a 0.6,0.6 0 0 1 0,-0.79 0.72,0.72 0 0 1 0.81,-0.27 l 17,5 q 0.9,0.32 0.36,1.05 l -7.1,9.75 a 0.67,0.67 0 0 1 -0.57,0.29 z"
     id="path16" />
  <path
     class="cls-2"
     d="m 136.25929,160.16926 a 23.71,23.71 0 0 0 7.89,6 24.85,24.85 0 0 0 9.71,2.35 25.39,25.39 0 0 0 9.66,-1.49 26.33,26.33 0 0 0 8.52,-5 25.87,25.87 0 0 0 8.67,-14.86 l 0.39,-2 -10.64,-6.27 -0.44,4.27 a 15.17,15.17 0 0 1 -1.69,5.59 16.21,16.21 0 0 1 -3.76,4.7 16,16 0 0 1 -5.14,3.06 15.37,15.37 0 0 1 -5.74,0.89 13.19,13.19 0 0 1 -5.16,-1.2 12.18,12.18 0 0 1 -4.13,-3.1 12.46,12.46 0 0 1 -3,-9.78 15.36,15.36 0 0 1 1.67,-5.57 15.93,15.93 0 0 1 3.73,-4.68 16.42,16.42 0 0 1 5.12,-3.08 14.83,14.83 0 0 1 5.72,-0.91001 l 4.28,0.14 -4.75,-11.39 -2,0.16 a 25.84,25.84 0 0 0 -15.86,6.52 26.47,26.47 0 0 0 -6.13,7.75001 24.89,24.89 0 0 0 -2.75,9.42 25.18,25.18 0 0 0 1,9.92 23.65,23.65 0 0 0 4.83,8.56 z"
     id="path18" />
  <path
     class="cls-2"
     d="m 191.74929,101.74925 a 0.43,0.43 0 0 1 0.66,0.2 l 17.69,32.72001 9.81,-5.30001 -17.7,-32.699997 a 0.43,0.43 0 0 1 0.2,-0.66 l 13.6,-7.35 -5.3,-9.81 -37.88,20.48 5.3,9.809997 z"
     id="path20" />
  <rect
     class="cls-2"
     x="194.61317"
     y="142.1566"
     width="11.15"
     height="48.84"
     transform="rotate(-19.01)"
     id="rect22" />
  <path
     class="cls-2"
     d="m 296.82929,103.72925 9.53,-51.059997 -11.76,1.93 -5.42,29.34 a 0.62,0.62 0 0 1 -1.1,0.18 l -14.52,-26.07 -11.73,1.93 25.38,45.329997 z"
     id="path24" />
  <path
     class="cls-2"
     d="m 365.82929,90.479253 -28,-1.38 a 0.49,0.49 0 0 1 -0.53,-0.58 l 0.18,-3.62 c 0,-0.42 0.21,-0.62 0.58,-0.6 l 22.62,1.11 0.54,-11.06 -22.61,-1.11 c -0.37,0 -0.55,-0.24 -0.53,-0.66 l 0.45,-9.25 a 0.5,0.5 0 0 1 0.59,-0.53 l 28,1.37 0.56,-11.27 -39.67,-1.95 -2.42,48.72 39.66,1.949997 z"
     id="path26" />
  <path
     class="cls-2"
     d="m 448.15929,125.15925 a 14.79,14.79 0 0 0 10.44,-3.88 14.47,14.47 0 0 0 3.44,-4.75 14.66,14.66 0 0 0 1.31,-5.14 14.26,14.26 0 0 0 -0.61,-5.26 14,14 0 0 0 6.92,-7.099997 15.45,15.45 0 0 0 1.43,-5.55 14.84,14.84 0 0 0 -0.62,-5.42 13.79,13.79 0 0 0 -2.93,-5 14.82,14.82 0 0 0 -4.85,-3.48 l -23.75,-10.88 -20.24,44.229997 23.76,10.87 a 14.31,14.31 0 0 0 5.7,1.36 z m -6.69,-35.349997 2.67,-5.83 c 0.17,-0.38 0.47,-0.48 0.89,-0.28 l 12.67,5.8 a 3.65,3.65 0 0 1 2,2.08 3.37,3.37 0 0 1 -0.16,2.87 3.8,3.8 0 0 1 -2.16,2 3.5,3.5 0 0 1 -2.82,0 l -12.73,-5.78 c -0.41,-0.2 -0.53,-0.48 -0.36,-0.86 z m -7.82,17.099997 2.66,-5.83 c 0.18,-0.38 0.47,-0.47 0.9,-0.28 l 13,6 a 3.38,3.38 0 0 1 1.83,2.1 4.14,4.14 0 0 1 -0.1,3 3.61,3.61 0 0 1 -2.13,2 3.7,3.7 0 0 1 -2.85,-0.12 l -13,-5.95 c -0.37,-0.25 -0.49,-0.54 -0.31,-0.92 z"
     id="path28" />
  <rect
     class="cls-2"
     x="145.87912"
     y="465.38678"
     width="48.84"
     height="11.15"
     transform="rotate(-56.22)"
     id="rect30" />
  <path
     class="cls-2"
     d="m 497.69929,158.80926 10.87,-11.68 a 0.69,0.69 0 0 1 1.21,0.46 l -0.81,21.71 10.75,10 1.17,-32.33 32.12,-3.4 -10.75,-10 -21.56,2.29 a 0.71,0.71 0 0 1 -0.71,-0.37 0.58,0.58 0 0 1 0.13,-0.74 l 10.87,-11.68001 -8.36,-7.79 -33.29,35.74001 z"
     id="path32" />
  <path
     class="cls-2"
     d="m 551.73929,221.58926 9.16,-6.36 -16,-23 a 0.49,0.49 0 0 1 0.14,-0.77 l 3,-2.07 c 0.35,-0.24 0.62,-0.2 0.83,0.1 l 12.96,18.59 9.1,-6.32 -12.92,-18.6 c -0.21,-0.3 -0.14,-0.57 0.2,-0.81 l 7.61,-5.29 a 0.5,0.5 0 0 1 0.78,0.14 l 16,23 9.23,-6.43 -22.65,-32.62 -40.09,27.82 z"
     id="path34" />
  <path
     class="cls-1"
     d="m 268.88929,332.98926 0.45,0.3 c 4.52,-6.43 9.19,-12.75 13.69,-19.47 l -1.43,-0.25 z"
     id="path36" />
  <path
     class="cls-1"
     d="m 323.76929,313.39926 -7.94,18 h -0.05 l -1.66,3.92 0.94,1.28 -0.49,1.17 0.66,2.35 2.13,1.47 c 1.8,-1.32 1.08,-3.55 1.6,-4.65 l -2.13,-3.73 c 0.14,-0.57 0.15,-0.81 -0.13,-1.1 l 7.05,-16.78 v 2.68 c 1.11,2 3,2.45 4.69,3.42 1.24,-1.21 2.7,-2.08 3,-3.48 a 34.56,34.56 0 0 0 3.43,-3.41 5.25,5.25 0 0 1 3.46,-2.21 c 0.34,-2.83 2.24,-4.12 4.87,-5.06 l 3.37,0.41 c 0.28,-0.37 0.66,-0.84 1,-1.24 1.48,-0.2 1.45,1.33 2.46,1.74 l -1.8,1.29 c 1.23,1.92 1,3.92 0.55,6 2.89,-2.87 5.6,-5.79 8.33,-8.68 0.8,-0.86 1.67,-1.64 2.47,-2.49 1.85,-2 3.68,-4 5.51,-6 l 6.72,-7.32 c -0.33,-1.22 -0.67,-2.47 -1.06,-3.94 l -8,1.27 c -0.14,0.24 -0.26,0.44 -0.35,0.62 -0.33,-0.11 -0.64,-0.33 -0.92,-0.29 -6.15,0.94 -12.3,1.91 -18,2.8 l -15,13.16 c -0.74,-3.22 -2.4,-10.07 -4.53,-16.26 1.41,-1.56 2.76,-3.08 4.15,-4.53 1.74,-1.81 3.57,-3.53 5.56,-5.5 0,-0.15 0.14,-0.65 0.28,-1.29 l -1,-0.08 a 121.59,121.59 0 0 1 5.74,-14.63 c -3.41,4.4 -7.5,14.27 -7.7,14.74 a 2.4,2.4 0 0 1 -0.71,0 c -2.27,-0.7 -4.58,-0.39 -6.86,-0.37 a 37.67,37.67 0 0 0 -4.52,0.53 l 4.24,12.11 c 0,0 4.54,13.06 4.46,17.17 a 4.66,4.66 0 0 1 -0.82,1.67 c -1.33,1.67 -1.68,3.86 -3,5.24 z"
     id="path38" />
  <path
     class="cls-1"
     d="m 302.23929,370.01926 -3.49,5 a 33.67,33.67 0 0 1 -5.37,5.76 48.06,48.06 0 0 1 -7.29,5.27 c -0.93,0.56 -1.91,1 -2.87,1.47 a 544.6,544.6 0 0 1 65.61,-4 q 12.09,0 24,0.53 a 30.6,30.6 0 0 1 -2.9,-2.34 c -1.29,-1.18 -2.72,-2.22 -3.91,-3.48 a 42.4,42.4 0 0 1 -12.13,-23.55 58.23,58.23 0 0 1 -0.84,-7.31 c 0,-0.46 -0.09,-0.92 -0.08,-1.38 a 63,63 0 0 1 0.87,-7 39.25,39.25 0 0 1 4.1,-12.73 43.8,43.8 0 0 1 11.17,-14.08 78.66,78.66 0 0 1 6.85,-4.83 c -0.76,-2.1 -0.88,-4.58 -2.19,-6.88 a 16.62,16.62 0 0 0 -1.32,1.11 c -3.68,3.84 -7.36,7.67 -11,11.53 -1.92,2 -3.79,4.09 -5.68,6.13 l -11.66,12.64 c -1.83,2 -3.66,4 -5.5,6 -3,3.22 -6,6.43 -9.14,9.84 v 0.05 c -0.27,0.66 0.21,1.43 0.61,2.15 2.12,3.86 1.71,7.85 0.24,11.67 a 12.65,12.65 0 0 1 -4.48,5.73 c -1.32,1 -2.6,2 -4.65,2.12 l 5.53,2.29 1.31,1.87 v 2.66 l -1.46,1.53 -2.47,0.56 c -2.1,-0.69 -4.73,0 -6.8,-1.95 -0.51,1.07 -0.05,2.42 -1.37,2.75 l -1.59,0.2 -0.51,-1.38 -1.64,1 h -1.78 a 21.81,21.81 0 0 1 -1.27,-1.81 16.27,16.27 0 0 1 -0.83,-2 l -1.24,0.78 c -0.27,-0.8 -0.51,-1.53 -0.78,-2.35 l 0.89,-2.06 c -1.35,-1.09 -2.79,-2.21 -4.94,-1.51 z"
     id="path40" />
  <path
     class="cls-1"
     d="m 300.64929,342.92926 c -4.75,0 -9.22,0.06 -13.68,0 a 17.92,17.92 0 0 0 -6.59,1.27 c 1.54,0.24 2.84,0.53 4.16,0.62 3.4,0.22 6.8,0.35 10.2,0.51 0.24,0 0.53,0 0.72,0.05 1.43,0.77 2.95,0.28 4.52,0.42 0.23,-0.98 0.43,-1.84 0.67,-2.87 z"
     id="path42" />
  <path
     class="cls-1"
     d="m 298.73929,349.57926 c 0.35,-0.92 0.64,-1.71 1,-2.63 -2.05,-0.22 -4,-0.5 -5.93,-0.63 -3.31,-0.23 -6.64,-0.36 -10,-0.52 a 1.93,1.93 0 0 1 -0.24,0 c -2.15,-0.84 -4.4,-0.3 -6.49,-0.47 l -2.48,1.27 c 2,0.25 3.76,0.41 5.46,0.68 2.62,0.43 5.22,1 7.85,1.38 a 35.32,35.32 0 0 1 4.66,0.6 c 2.09,0.62 4.08,0.22 6.17,0.32 z"
     id="path44" />
  <path
     class="cls-1"
     d="m 288.82929,341.15926 c 4.15,0.25 8.18,0.35 12.19,0.26 0.3,-1.76 -0.49,-3 -1.12,-4.31 z"
     id="path46" />
  <path
     class="cls-1"
     d="m 328.37929,334.32926 c -0.21,0.9 -0.41,1.74 -0.63,2.66 l -1,-0.13 -0.55,0.82 -2,-0.28 c -0.37,1.82 -0.72,3.55 -1.18,5.79 2,-1.28 6.13,-5.74 7.81,-8.14 -0.6,-1.09 -1.6,-0.72 -2.45,-0.72 z"
     id="path48" />
  <path
     class="cls-1"
     d="m 270.94929,346.15926 c 1.59,0.29 2.81,-0.44 4.45,-1.23 h -4.57 c 0.07,0.54 0.09,0.83 0.12,1.23 z"
     id="path50" />
  <path
     class="cls-1"
     d="m 271.82929,353.66926 16.75,7.88 a 27.17,27.17 0 0 0 2.54,-2.71 27.93,27.93 0 0 0 1.81,-3.29 c -4.81,-1 -9.61,-1.85 -14.35,-3 l -0.74,-0.16 c -1.05,-0.25 -2.05,0.28 -3.07,-0.3 a 18.52,18.52 0 0 0 -3.09,-1.09 c -0.49,-0.17 -1,-0.32 -1.71,-0.55 0.08,0.68 0.13,1.08 0.17,1.41 l -0.87,0.57 z"
     id="path52" />
  <path
     class="cls-1"
     d="m 285.73929,316.13926 a 138,138 0 0 0 -10.91,15.08 c 4.93,-3.92 9.71,-8 14.33,-12.46 -1.05,-0.97 -1.79,-2.23 -3.42,-2.62 z"
     id="path54" />
  <path
     class="cls-1"
     d="m 361.36929,357.84926 a 13.75,13.75 0 0 0 2.13,-0.27 c 2,-0.54 3.89,-1.16 5.84,-1.73 q 6.51,-1.9 13,-3.79 c 2.78,-0.8 5.54,-1.65 8.35,-2.28 0.5,-0.12 1,-0.27 1.44,-0.43 a 8.4,8.4 0 0 0 2.21,-1 c -0.09,-0.39 -0.15,-0.68 -0.22,-1 h -34.29 a 1.33,1.33 0 0 0 0,0.2 c -0.22,3.59 0.82,6.84 1.54,10.3 z"
     id="path56" />
  <path
     class="cls-1"
     d="m 399.25929,343.47926 c 0.3,-0.65 0.6,-1.17 0.79,-1.72 0.33,-1 0.57,-2 0.88,-2.91 2.8,-8.68 5.62,-17.36 8.4,-26 a 18.65,18.65 0 0 0 0.46,-2.34 c -3.72,-1 -7.25,-1.95 -11.12,-1.56 v 2.51 19.88 c 0,1.36 0.31,2.82 -0.09,4 a 15.3,15.3 0 0 0 -0.3,3.84 c -0.15,1.41 -0.55,3 0.98,4.3 z"
     id="path58" />
  <path
     class="cls-1"
     d="m 421.60929,317.00926 a 2,2 0 0 0 -0.54,0.4 q -9.18,12.28 -18.34,24.6 c -0.46,0.62 -0.83,1.31 -1.23,2 9.44,-6.29 18.81,-12.6 28,-19.1 -0.95,-2.24 -5.4,-6.68 -7.89,-7.9 z"
     id="path60" />
  <path
     class="cls-1"
     d="m 400.15929,344.07926 c 0.49,-0.34 0.73,-0.42 0.83,-0.59 a 114.78,114.78 0 0 1 7,-9.78 q 2.52,-3.28 5,-6.61 c 1.6,-2.14 3.2,-4.29 4.75,-6.47 1,-1.45 2,-2.95 2.93,-4.4 -2.86,-2.53 -7.34,-4.79 -10,-5 -3.32,10.84 -7.15,21.59 -10.51,32.85 z"
     id="path62" />
  <path
     class="cls-1"
     d="m 387.15929,310.42926 a 4.71,4.71 0 0 0 0,1.22 q 1.77,5.32 3.59,10.64 c 0.86,2.52 1.68,5 2.63,7.52 1.35,3.51 2,7.27 4.27,10.92 v -2.87 q 0,-10.44 0,-20.88 a 5.8,5.8 0 0 1 0,-1.67 4.49,4.49 0 0 0 0.05,-3.19 10.58,10.58 0 0 1 -0.17,-3.26 23.16,23.16 0 0 0 -10.37,1.57 z"
     id="path64" />
  <path
     class="cls-1"
     d="m 385.00929,310.98926 a 106.27,106.27 0 0 0 8.34,21.68 6.36,6.36 0 0 0 -0.16,-1.09 c -0.9,-2.74 -1.8,-5.48 -2.74,-8.21 -1.31,-3.83 -2.63,-7.66 -4,-11.47 -0.15,-0.39 -0.11,-1.32 -1.44,-0.91 z"
     id="path66" />
  <path
     class="cls-1"
     d="m 391.45929,345.27926 2.8,1 c -0.78,-1.23 -1.36,-2.31 -2.09,-3.28 a 8.59,8.59 0 0 0 -1.87,-1.84 c -4,-2.82 -8,-5.56 -12,-8.38 -2.18,-1.55 -4.27,-3.23 -6.44,-4.79 -1.64,-1.19 -3.34,-2.3 -5.08,-3.49 a 38.34,38.34 0 0 0 -5,9.74 19.24,19.24 0 0 0 2.56,1.36 c 5.58,2 11.17,4 16.76,5.95 3.47,1.24 6.91,2.49 10.36,3.73 z"
     id="path68" />
  <path
     class="cls-1"
     d="m 360.03929,346.20926 h 31.69 c -5.41,-1.95 -10.31,-3.8 -15.26,-5.47 -4.95,-1.67 -9.82,-3.93 -15,-5.12 -1.54,4.63 -1.97,7.86 -1.43,10.59 z"
     id="path70" />
  <path
     class="cls-1"
     d="m 435.64929,336.58926 a 16.69,16.69 0 0 0 -2,0.37 c -1.84,0.64 -3.64,1.42 -5.5,2 -4,1.26 -8.08,2.38 -12.09,3.66 -4.01,1.28 -7.67,2.59 -11.58,3.92 a 3.93,3.93 0 0 0 0.69,0.18 l 22.42,0.5 c 1.44,0 2.88,0 4.32,0 0.47,0 1.06,-0.15 1.41,0.06 1.15,0.69 2.32,0.27 3.63,0.38 0.46,-3.92 -0.35,-7.4 -1.3,-11.07 z"
     id="path72" />
  <path
     class="cls-1"
     d="m 432.27929,328.66926 c -0.63,-1.07 -1.37,-2.08 -2.17,-3.26 l -28.11,19.59 c 0.06,0.46 0.1,0.83 0.16,1.28 1.55,-0.47 3,-0.88 4.37,-1.33 7.59,-2.44 15.2,-4.83 22.75,-7.38 2,-0.66 4.19,-0.74 6,-2.36 a 11,11 0 0 1 -1.24,-3.15 23,23 0 0 0 -1.76,-3.39 z"
     id="path74" />
  <path
     class="cls-1"
     d="m 289.94929,319.71926 c -1.6,1.28 -3.18,2.46 -4.65,3.76 -2.61,2.29 -5.15,4.68 -7.74,7 -2,1.79 -4.05,3.52 -6,5.33 a 12.79,12.79 0 0 0 -1.66,2 c -0.59,0.82 -1.13,1.69 -1.76,2.65 l 0.86,0.63 a 12.82,12.82 0 0 0 5,0 c 0.82,0.61 1.33,-0.14 1.85,-0.5 2.05,-1.41 4,-2.94 6.09,-4.35 4.09,-2.8 8.21,-5.55 12.31,-8.34 0.45,-0.31 0.87,-0.67 1.34,-1 -1.66,-2.81 -3.12,-5.3 -5.64,-7.18 z"
     id="path76" />
  <path
     class="cls-1"
     d="m 270.00929,343.19926 c 0.67,0.86 1.36,0.9 2.24,-0.08 -1.56,-0.4 -1.67,-0.39 -2.24,0.08 z"
     id="path78" />
  <path
     class="cls-1"
     d="m 276.60929,341.06926 a 63.15,63.15 0 0 0 8.74,0.36 3.66,3.66 0 0 0 1.11,-0.35 c 4.13,-1.49 8.26,-3 12.37,-4.49 0.34,-0.12 0.59,-0.49 1,-0.9 l -3.51,-8.3 z"
     id="path80" />
  <path
     class="cls-1"
     d="m 253.42929,356.28926 h 2.33 l 0.75,-1.79 -2.94,-4.35 -4.39,3.14 a 20,20 0 0 0 2,1.87 14.84,14.84 0 0 0 2.25,1.13 z"
     id="path82" />
  <path
     class="cls-1"
     d="m 376.36929,317.66926 a 9.21,9.21 0 0 0 -1.39,-1.3 35.76,35.76 0 0 0 -7.73,7.53 c 7.18,5.13 14.21,10.14 21.24,15.14 0.05,0 0.16,0 0.23,0 a 0.61,0.61 0 0 0 0.17,-0.15 c 0,-0.15 0.1,-0.36 0,-0.45 a 38.37,38.37 0 0 1 -4.94,-8 c -1.98,-4.65 -4.81,-8.71 -7.58,-12.77 z"
     id="path84" />
  <path
     class="cls-1"
     d="m 272.69929,343.60926 c 1.4,0.28 2.46,0.56 3.53,0.69 a 4.08,4.08 0 0 0 2.77,-0.42 12.68,12.68 0 0 1 1.73,-0.74 c -2.61,0.04 -5.24,-0.75 -8.03,0.47 z"
     id="path86" />
  <path
     class="cls-1"
     d="m 248.70929,352.57926 3.9,-2.73 a 9.53,9.53 0 0 0 -5,0 c 0.37,0.95 0.68,1.72 1.1,2.73 z"
     id="path88" />
  <path
     class="cls-1"
     d="m 247.82929,347.89926 1.13,0.62 3.29,-1.07 -3.64,-1.29 z"
     id="path90" />
  <path
     class="cls-1"
     d="m 254.67929,342.66926 c -4.61,0.87 -4.37,1.11 -5.27,2.76 1.31,0.4 2.47,1.2 4,1.36 a 17,17 0 0 1 1.27,-4.12 z"
     id="path92" />
  <path
     class="cls-1"
     d="m 250.64929,309.81926 c -2.59,1.07 -5.35,1.79 -7.67,3.53 a 14.88,14.88 0 0 0 0.71,2.08 c 2.57,4.88 5.2,9.73 7.76,14.61 1.18,2.24 2.27,4.53 3.33,6.65 l 2.11,1.4 a 8.25,8.25 0 0 0 0,-1.24 c -0.79,-3.67 -1.63,-7.32 -2.37,-11 -0.87,-4.29 -1.56,-8.62 -2.55,-12.88 -0.24,-1.03 -0.05,-2.44 -1.32,-3.15 z"
     id="path94" />
  <path
     class="cls-1"
     d="m 268.41929,353.26926 -0.61,1.07 -0.28,0.49 2.55,2 c 0.13,-0.13 0.26,-0.26 0.38,-0.4 l -1.47,-2.25 z"
     id="path96" />
  <path
     class="cls-1"
     d="m 224.82929,357.04926 c 7.54,-2.38 14.63,-5 22.21,-7.77 -3.64,-0.21 -6.8,-0.42 -10,-0.58 -1.12,-0.06 -2.24,0 -3.36,0 a 8.3,8.3 0 0 1 -1.65,-0.15 27.93,27.93 0 0 0 -8.46,0 c 0.44,2.69 0.83,5.4 1.26,8.5 z"
     id="path98" />
  <path
     class="cls-1"
     d="m 272.38929,309.84926 -3.87,21.35 0.29,0.13 c 4,-6.09 8,-12.17 12.15,-18.45 a 15.11,15.11 0 0 0 -3.91,-1.86 c -1.4,-0.57 -2.82,-1.41 -4.66,-1.17 z"
     id="path100" />
  <path
     class="cls-1"
     d="m 223.82929,347.09926 11.75,0.6 a 13.26,13.26 0 0 1 3.1,0.09 c 2.67,0.79 5.32,0.16 7.92,0.4 0.21,-0.91 0.36,-1.58 0.56,-2.5 l -22.22,-7.61 c -1.3,3.03 -1.24,5.98 -1.11,9.02 z"
     id="path102" />
  <path
     class="cls-1"
     d="m 262.57929,308.05926 a 2.46,2.46 0 0 0 -0.27,0.88 c 0.09,1 0.26,2 0.4,3 0.14,1 0.36,2.18 0.45,3.27 0.21,2.52 0.35,5.05 0.52,7.58 0,0.16 0,0.35 0,0.48 0.7,1.19 0.31,2.5 0.44,3.75 0.13,1.25 0.33,2.49 0.46,3.74 0.19,1.9 0.36,3.81 0.57,6.09 l 2.28,-3.83 -0.24,-0.32 c 0.4,-1.92 0.82,-3.83 1.17,-5.75 0.35,-1.92 0.66,-4 1,-6 0.34,-2 0.78,-3.85 0.93,-5.8 0.15,-1.95 1.35,-3.86 0.8,-5.86 -2.74,-1.5 -5.68,-0.62 -8.51,-1.23 z"
     id="path104" />
  <path
     class="cls-1"
     d="m 241.61929,314.05926 c -2.49,1.77 -5,3.19 -6.71,5.66 l 17.44,14.95 c -0.53,-1.41 -0.61,-3 -1.89,-3.81 0.11,-1.53 -1.11,-2.46 -1.71,-3.65 -2,-4 -4.14,-8 -6.24,-12 a 7.46,7.46 0 0 0 -0.89,-1.15 z"
     id="path106" />
  <path
     class="cls-1"
     d="m 261.18929,308.46926 c -3.24,-0.53 -6.12,0.23 -9.05,1.09 l 6,29.47 2.95,-0.27 0.72,-0.89 0.64,1.08 c 0.18,-0.3 0.3,-0.5 0.42,-0.68 l 1.16,0.3 a 16.17,16.17 0 0 0 0,-4 c -0.62,-2.24 -0.34,-4.53 -0.77,-6.78 a 63.15,63.15 0 0 1 -0.58,-7.55 1.91,1.91 0 0 0 0,-0.48 c -0.7,-2.52 -0.46,-5.16 -0.9,-7.71 -0.28,-1.18 -0.42,-2.38 -0.59,-3.58 z"
     id="path108" />
  <path
     class="cls-1"
     d="m 225.27929,337.26926 22.31,7.62 a 27.67,27.67 0 0 1 3.85,-2.8 c 1.34,-0.66 3.05,-0.37 4.53,-1.26 -0.8,-0.32 -1.45,-0.54 -2.08,-0.83 -2.21,-1 -4.41,-2.09 -6.63,-3.09 q -6.68,-3 -13.36,-6 c -1.85,-0.82 -3.72,-1.6 -5.89,-2.54 -0.96,3.17 -2.89,5.61 -2.73,8.9 z"
     id="path110" />
  <path
     class="cls-1"
     d="m 229.06929,327.76926 26,11.92 0.43,-0.49 a 19,19 0 0 0 -2.1,-2.81 c -1.44,-1.34 -3,-2.51 -4.58,-3.72 a 45,45 0 0 1 -4.09,-3.48 c -1.74,-1.71 -3.71,-3.19 -5.59,-4.76 -1.63,-1.37 -3.27,-2.72 -4.89,-4.07 -4.02,4.24 -4.6,5.07 -5.18,7.41 z"
     id="path112" />
  <path
     class="cls-1"
     d="m 243.31929,380.82926 c 0.42,-0.54 0.78,-1 1.09,-1.41 1.55,-2.27 3.1,-4.55 4.62,-6.84 2.42,-3.67 4.84,-7.35 7.21,-11.06 a 7.15,7.15 0 0 0 0.65,-2 c 0,-0.18 -0.12,-0.42 -0.17,-0.61 l -2,-0.39 c -3.14,2.75 -6.29,5.41 -9.32,8.21 -3.03,2.8 -6.34,5.35 -9.29,8.35 2.11,2.53 4.97,3.67 7.21,5.75 z"
     id="path114" />
  <path
     class="cls-1"
     d="m 268.51929,358.52926 v 2 l 2.19,2.7 a 3.6,3.6 0 0 0 0.41,3.15 l 4.4,0.41 -3.56,-7.35 -4.68,-3.68 z"
     id="path116" />
  <path
     class="cls-1"
     d="m 282.40929,380.66926 q -3.07,-6.3 -6,-12.24 l -6.27,-0.69 c 1.29,5.79 2.48,11.09 3.69,16.5 z"
     id="path118" />
  <path
     class="cls-1"
     d="m 229.20929,366.41926 7.76,-5.58 10.71,-7.68 -1.18,-2.87 c -2.35,0.91 -4.66,1.85 -7,2.7 -4.11,1.48 -8.25,2.88 -12.36,4.34 a 15.54,15.54 0 0 0 -1.9,1 53.24,53.24 0 0 1 2.16,5 10.92,10.92 0 0 0 1.81,3.09 z"
     id="path120" />
  <path
     class="cls-1"
     d="m 252.91929,383.49926 c 0.55,-3 1.06,-6 1.58,-9 a 70.3,70.3 0 0 1 1.33,-7.83 5.87,5.87 0 0 0 -0.1,-3.2 c -3.76,6.18 -7.8,11.78 -11.37,17.92 l 7.77,3.07 c 0.39,-0.48 0.7,-0.69 0.79,-0.96 z"
     id="path122" />
  <path
     class="cls-1"
     d="m 263.74929,385.56926 c 3.17,0.36 6,-0.47 9,-1.07 a 6.74,6.74 0 0 0 0,-1.28 c -1.16,-5.08 -2.34,-10.16 -3.48,-15.1 l -5,-0.79 c 0.52,-2.06 -0.91,-4 0.36,-5.87 -0.86,-1 -1.79,-0.73 -2.92,-0.73 a 94.49,94.49 0 0 0 0.64,9.58 c 0.43,2.65 0.37,5.32 0.81,8 0.37,2.36 0.4,4.8 0.59,7.26 z"
     id="path124" />
  <path
     class="cls-1"
     d="m 429.82929,369.80926 c 2.67,-3.31 4.66,-7.18 4.8,-9.49 -9.55,-3.37 -19.33,-6.2 -29.13,-9.08 7.82,6.29 15.74,12.37 23.67,18.44 0.15,0.13 0.44,0.09 0.66,0.13 z"
     id="path126" />
  <path
     class="cls-1"
     d="m 235.51929,374.39926 18.31,-16.14 -1.31,-1 -4.56,-3.29 -8.66,6.25 -9.89,7.14 c 2.07,2.4 3.52,5.06 6.11,7.04 z"
     id="path128" />
  <path
     class="cls-1"
     d="m 409.51929,383.96926 -9.93,-32.86 -1.41,0.75 c 0,0.53 0,1 0,1.49 0.24,7.73 -0.43,15.47 0.4,23.2 a 86.86,86.86 0 0 1 0,9 c 3.78,0.19 9,-0.6 10.94,-1.58 z"
     id="path130" />
  <path
     class="cls-1"
     d="m 397.62929,358.75926 a 48.3,48.3 0 0 0 -0.26,-6.56 l -10.72,31.47 c 1.91,0.49 3.63,1 5.39,1.35 1.76,0.35 3.67,0.42 5.62,0.63 v -20.17 c 0,-2.24 0.07,-4.48 -0.03,-6.72 z"
     id="path132" />
  <path
     class="cls-1"
     d="m 295.41929,366.81926 c -2.34,-1.27 -4.58,-2.7 -6.78,-4.19 a 1.55,1.55 0 0 0 -0.23,-0.07 l -9.19,-4.37 -8.9,-4.26 h -0.1 v 0.06 l 2.11,4.68 10.71,8.69 a 41,41 0 0 0 5.12,0 c 1.65,-0.23 3.22,1.32 4.51,0.26 l 3.33,0.29 c -0.3,-0.6 -0.37,-0.98 -0.58,-1.09 z"
     id="path134" />
  <path
     class="cls-1"
     d="m 261.26929,368.66926 c -0.33,-2.74 -0.41,-5.5 -0.58,-8.08 l -1.78,-1.65 a 4.22,4.22 0 0 0 -1.54,3 c -0.21,2.1 -0.56,4.19 -1,6.26 -0.74,3.92 -1.53,7.82 -1.92,11.8 -0.14,1.46 -0.55,2.9 -0.88,4.58 a 22.32,22.32 0 0 0 9,0.91 c 0,-2.1 -0.15,-4 -0.36,-6 -0.31,-3.56 -0.51,-7.18 -0.94,-10.82 z"
     id="path136" />
  <path
     class="cls-1"
     d="m 324.50929,363.66926 c 1.77,-1.17 2.16,-2.63 2.72,-4.56 l -2,1.39 c -0.22,0.91 -0.4,1.87 -0.72,3.17 z"
     id="path138" />
  <path
     class="cls-1"
     d="m 428.99929,370.79926 c -1.1,-0.82 -2.12,-1.54 -3.09,-2.31 -2.85,-2.26 -5.65,-4.57 -8.51,-6.81 -2.35,-1.85 -4.77,-3.61 -7.13,-5.45 -2.36,-1.84 -4.82,-3.87 -7.26,-5.75 l -0.17,-0.13 a 10.45,10.45 0 0 0 -2.07,-0.93 c 0,0.32 -0.06,0.55 -0.08,0.78 -0.02,0.23 -0.07,0.68 -0.09,0.87 l 20.52,27.48 c 3.1,-2.21 6.14,-4.27 7.88,-7.75 z"
     id="path140" />
  <path
     class="cls-1"
     d="m 324.11929,357.13926 c 0.06,-2.63 0.06,-2.63 -0.78,-3.44 -0.52,0.48 -1.05,1 -1.49,1.34 0,1.62 0,1.63 1,2.58 0.09,0.09 0.28,0.08 0.51,0.14 z"
     id="path142" />
  <path
     class="cls-1"
     d="m 281.22929,367.29926 c -2.33,-1.87 -4.17,-4.24 -7.3,-5.72 1,2.06 1.86,3.66 2.64,5.18 z"
     id="path144" />
  <path
     class="cls-1"
     d="m 322.82929,364.29926 -1.37,-0.5 -0.82,1.11 -1,-0.38 c -0.26,0.45 -0.47,0.84 -0.69,1.23 h 2.11 z"
     id="path146" />
  <path
     class="cls-1"
     d="m 436.39929,355.55926 a 19.28,19.28 0 0 0 0.59,-6.64 6.21,6.21 0 0 0 -1,-0.55 3.3,3.3 0 0 0 -1.17,-0.14 c -6.77,0.3 -13.51,-0.51 -20.27,-0.5 h -3.35 a 4.84,4.84 0 0 1 -1.43,0 c -2.49,-0.84 -5,-0.24 -7.51,-0.38 -0.21,0.54 -0.36,0.94 -0.53,1.39 a 26.3,26.3 0 0 0 6,2.15 l 1.11,0.34 q 7.17,2.19 14.29,4.47 c 3.42,1.1 6.8,2.29 10.22,3.39 a 10.59,10.59 0 0 0 2.08,0.24 c 0.4,-1.31 0.68,-2.54 0.97,-3.77 z"
     id="path148" />
  <path
     class="cls-1"
     d="m 327.43929,354.16926 -1.06,-1.3 v 4.54 c 1.17,-1.02 1.17,-1.02 1.06,-3.24 z"
     id="path150" />
  <path
     class="cls-1"
     d="m 420.45929,379.22926 c -2.29,-3.08 -4.34,-5.87 -6.41,-8.64 -2.07,-2.77 -4.25,-5.49 -6.23,-8.35 -1.98,-2.86 -4,-5.43 -6.18,-8 3,9.87 5.43,19.85 9.05,29.62 a 63.51,63.51 0 0 0 9.77,-4.63 z"
     id="path152" />
  <path
     class="cls-1"
     d="m 321.82929,360.75926 -2.43,-1.18 a 3.4,3.4 0 0 0 -1.38,2.91 c 1.62,0.34 2.71,-0.37 3.81,-1.73 z"
     id="path154" />
  <path
     class="cls-1"
     d="m 313.01929,350.72926 c -1.08,-0.27 -1.6,0.09 -1.85,1.2 l 2,0.84 c -0.1,-1.02 -0.13,-1.53 -0.15,-2.04 z"
     id="path156" />
  <path
     class="cls-1"
     d="m 283.50929,352.77926 c 1.51,0 2.88,1.06 4.94,0.42 -1.95,-0.2 -3.36,-1.03 -4.94,-0.42 z"
     id="path158" />
  <path
     class="cls-1"
     d="m 396.82929,350.96926 c -1.59,1.15 -19,24.29 -20.73,27.33 3.06,1.85 6,3.83 9.75,4.87 3.66,-10.68 7.27,-21.27 10.98,-32.2 z"
     id="path160" />
  <path
     class="cls-1"
     d="m 392.82929,350.45926 c -10.34,2.42 -20.45,5.48 -30.8,8.53 0.81,3.68 3,6.59 4.72,9.88 z"
     id="path162" />
  <path
     class="cls-1"
     d="m 374.99929,377.22926 a 14.54,14.54 0 0 0 1.52,-1.43 c 2.74,-3.56 5.45,-7.15 8.15,-10.73 l 9.67,-12.84 a 2.65,2.65 0 0 0 0.71,-2.37 c -1.72,1.27 -3.22,2.39 -4.73,3.48 a 50.1,50.1 0 0 1 -4.66,3.21 c -1.63,0.92 -2.79,2.39 -4.44,3.29 a 47.18,47.18 0 0 0 -4.64,3.25 l -4.62,3.3 -4.7,3.37 c 2.57,2.67 4.72,5.45 7.74,7.47 z"
     id="path164" />
  <path
     class="cls-1"
     d="m 290.59929,373.58926 c 1.13,-1.07 2.14,-2 3.09,-2.93 a 4.78,4.78 0 0 0 0.59,-1.18 l -9.45,-0.61 z"
     id="path166" />
  <path
     class="cls-1"
     d="m 290.01929,374.25926 -6.53,-5.31 -6.12,-0.53 5.77,11.53 a 22.66,22.66 0 0 0 6.88,-5.69 z"
     id="path168" />
  <path
     class="cls-1"
     d="m 603.96929,425.42926 a 403.39,403.39 0 0 0 -42.18,-26 231,231 0 0 0 6.45,-54.17 c 0,-127.85 -103.62,-231.48001 -231.44,-231.48001 -127.82,0 -231.47,103.67001 -231.47,231.52001 a 231.14,231.14 0 0 0 9.65,66.09 q -14.15,8.63 -27.290001,18.28 c 32.520001,-11.71 89.890001,-29.2 163.650001,-38.61 -1.61,-0.42 -3.24,-0.91 -4.85,-1.47 a 36.15,36.15 0 0 1 -11.81,-6.73 68,68 0 0 1 -5.79,-5.33 43.2,43.2 0 0 1 -8.3,-12.34 32.23,32.23 0 0 1 -1.32,-3.52 41.37,41.37 0 0 1 -2.3,-11.5 c 0,-1.39 -0.45,-2.82 -0.38,-4.22 a 55.73,55.73 0 0 1 3.38,-16.28 42.71,42.71 0 0 1 7,-11.71 43.58,43.58 0 0 1 8.26,-7.77 54.75,54.75 0 0 1 10.14,-5.65 37.76,37.76 0 0 1 7.84,-2.37 39.35,39.35 0 0 1 10.11,-1.05 c 2.13,0.11 4.18,0.6 6.31,0.8 a 41.62,41.62 0 0 1 10.35,3 33.82,33.82 0 0 1 7.08,3.84 c 3,-4.22 6.13,-8.47 9.13,-12.66 a 5.6,5.6 0 0 0 -0.84,-4 15.35,15.35 0 0 1 -1.22,-3.07 9.52,9.52 0 0 1 0,-2.3 c -1.33,-4.39 -2.82,-9.3 -4.43,-14.67 -1.6,-1.29 -3.52,-2.86 -5.47,-4.32 a 4.06,4.06 0 0 0 -1.74,-0.67 23.89,23.89 0 0 1 -6.14,-2.37 5.47,5.47 0 0 1 -2.19,-2 c 0.59,-1.36 0.59,-1.36 2.44,-2.72 a 3.6,3.6 0 0 0 0,-1.08 c -0.87,-2.76 0.07,-5.2 1.15,-7.7 0.87,-2.1 1.5,-4.29 2.23,-6.42 a 5.47,5.47 0 0 1 0.32,-0.87 c 0.69,-1.32 1.39,-2.65 2.12,-4 a 20.85,20.85 0 0 1 2.72,-4.43 10.74,10.74 0 0 0 1.15,-2.3 15,15 0 0 1 1.47,-2.13 c 0.62,-0.73 1.36,-1.39 2.12,-2.19 a 4.85,4.85 0 0 1 2.23,-3.21 19.23,19.23 0 0 0 3.14,-3.17 60.6,60.6 0 0 1 6.83,-5.79 64.92,64.92 0 0 1 8,-5.43 c 2.26,-1.29 4.63,-2.44 6.9,-3.66 1.18,-0.63 2.3,-1.4 3.52,-2 0.91,-0.42 1.92,-0.59 3.31,-1.05 0.25,-0.21 0.8,-0.76 1.54,-1.43 a 6.7,6.7 0 0 0 4.18,-1.53 48.92,48.92 0 0 1 9.51,-4.77 c 1.36,-0.56 2.69,-1.22 4,-1.89 0.35,-0.17 0.56,-0.55 0.87,-0.9 -0.17,-0.53 -0.31,-1.05 -0.55,-1.95 0.41,-1.09 0.9,-2.41 1.39,-3.84 h 15.44 l -14.95,-1.32 -2.48,-1.05 a 29.48,29.48 0 0 1 -4.32,-9.34 8.53,8.53 0 0 1 1.5,-1.33 100.49,100.49 0 0 1 11,-4.87 15.29,15.29 0 0 1 6,-1 c 2.13,0.11 4.26,-0.1 6.38,0.46 a 19.71,19.71 0 0 1 10.53,6.86 23.23,23.23 0 0 1 4.43,7.78 15.07,15.07 0 0 1 0.2,1.63 l -4.77,1.15 v 1.89 a 4.62,4.62 0 0 0 0,2.93 15.39,15.39 0 0 0 1.6,5.57 c -0.66,0.32 -1.67,0.66 -2.47,1.05 v 1.64 c -0.46,0.87 -1.15,2.23 -2.06,4 0,0.31 0,1.11 -0.07,1.92 -2.33,2 -5.12,0.76 -8,1.32 -0.42,0.28 -1.19,0.8 -2,1.33 a 48.4,48.4 0 0 1 3.38,6.06 c 0.66,1.53 0.73,3.35 1.15,5 0.42,1 0.77,2 1.22,3 a 5.89,5.89 0 0 0 1.43,2.37 6.38,6.38 0 0 1 1.64,2.2 9.85,9.85 0 0 0 1.22,1.74 13.25,13.25 0 0 1 2.72,3.52 11.44,11.44 0 0 0 3,3.38 c 1.74,1.61 3.66,3 5.33,4.71 a 13.78,13.78 0 0 1 2.2,3.07 c 2,3.27 3.9,6.65 6,9.89 a 67.46,67.46 0 0 0 4.46,5.82 c 1,1.36 2.19,2.65 3.2,4.05 a 3.59,3.59 0 0 0 2.17,1.32 l 5,1.22 2.06,-0.52 c 1.43,0.35 2.72,0.66 4.32,1 0.28,0.28 0.77,0.8 1.29,1.36 v 1.6 c -0.84,0.7 -1.81,1.5 -2.69,2.2 a 31.32,31.32 0 0 1 0.81,4 c 0.07,0.94 -0.07,2 -1.33,2.16 -0.24,0.07 -0.42,0.42 -0.63,0.63 -1.18,1.15 -2.4,2.33 -3.83,3.66 -0.49,0 -1.25,-0.07 -2.44,-0.11 a 12.14,12.14 0 0 1 -1.92,1.33 5.07,5.07 0 0 0 -2.23,2.37 10.46,10.46 0 0 1 -7.11,5.05 c -1,0.21 -1.95,0.28 -2.89,0.42 a 3.44,3.44 0 0 1 -3,-0.73 v -2.93 a 14.5,14.5 0 0 1 2.93,-0.59 c 2.44,0 3.8,-1.33 4.67,-3.39 0.17,-0.41 0.24,-0.9 0.42,-1.49 -0.56,-1.12 -1.22,-2.34 -1.78,-3.63 a 3.64,3.64 0 0 0 -2.75,-2.06 c -2.58,-0.62 -5.13,-1.32 -7.74,-1.84 a 9,9 0 0 0 -3.1,0 45.93,45.93 0 0 0 -4.53,1.08 c 1.88,4.53 3.24,9.23 4.88,13.84 1.53,4.28 2.71,8.64 4.07,13 a 16.15,16.15 0 0 0 0.63,1.56 c 3.31,-0.73 6.48,-1.7 9.73,-2.12 a 50.16,50.16 0 0 1 7.26,-0.12 37.22,37.22 0 0 1 6,0.58 48.1,48.1 0 0 1 12.65,4.24 45.41,45.41 0 0 1 14.57,11.33 46.8,46.8 0 0 1 9.75,19.58 49.34,49.34 0 0 1 0.94,11.57 34.43,34.43 0 0 1 -0.8,7.63 49.91,49.91 0 0 1 -2.54,8.16 c -1.19,3 -3,5.54 -4.46,8.33 a 14.94,14.94 0 0 1 -2.55,3.14 58,58 0 0 1 -7.25,6.86 2.92,2.92 0 0 1 -0.42,0.32 53.12,53.12 0 0 1 -5.71,3.41 c -0.56,0.32 -1.15,0.63 -1.75,0.91 -0.6,0.28 -1.32,0.73 -2,1 a 33,33 0 0 1 -3.8,1.36 11.47,11.47 0 0 0 1.08,0.63 c 28,15.55 34.72,33.6 34.72,33.6 0,0 21.68,40.85 -59.78,37.44 -77.31,-3.25 -174.94,14 -193.76,43.46 -31.84,49.85 151.43,41.18 167.46,54.18 7,5.64 -21.5,11.6 -49.21,15.89 -23.74,3.69 -46.92,6.17 -46.92,6.17 0,0 77.41,4.32 110.84,-8.51 a 0.11,0.11 0 0 0 0.07,0 c 33.39,-12.86 21.61,-28.65 -21.33,-37.16 -40.78,-8.05 -151.06,-2.75 -115.72,-23.49 49.25,-28.93 166.5,-13.56 230,-25 34.3,-6.17 49.91,-15.34 64.24,-28.65 0.68,-0.63 1.33,-1.27 2,-1.91 a 65.47,65.47 0 0 0 18,-36.33 l 1.58,-9.91 c 22.7,6.25 48.14,14.66 48.14,14.66 z"
     id="path170" />
  <path
     id="path194"
     style="fill:#ffffff;stroke-width:1.36989"
     d="M 334.8821,1.0994365e-4 A 335.42505,335.42505 0 0 0 0,335.42536 335.42505,335.42505 0 0 0 335.42526,670.85063 335.42505,335.42505 0 0 0 670.8505,335.42536 335.42505,335.42505 0 0 0 335.42526,1.0994365e-4 a 335.42505,335.42505 0 0 0 -0.54316,0 z M 335.32627,13.6911 A 322.21933,322.21933 0 0 1 657.54748,335.91233 322.21933,322.21933 0 0 1 335.32627,658.13086 322.21933,322.21933 0 0 1 13.107713,335.91233 322.21933,322.21933 0 0 1 335.32627,13.6911 Z" />
</svg>
