<?xml version="1.0" encoding="UTF-8" standalone="no"?>
<svg
   xmlns:dc="http://purl.org/dc/elements/1.1/"
   xmlns:cc="http://creativecommons.org/ns#"
   xmlns:rdf="http://www.w3.org/1999/02/22-rdf-syntax-ns#"
   xmlns:svg="http://www.w3.org/2000/svg"
   xmlns="http://www.w3.org/2000/svg"
   version="1.1"
   id="svg10"
   width="248.98787"
   height="345.49863"
   viewBox="0 0 248.98787 345.49863">
  <metadata
     id="metadata16">
    <rdf:RDF>
      <cc:Work
         rdf:about="">
        <dc:format>image/svg+xml</dc:format>
        <dc:type
           rdf:resource="http://purl.org/dc/dcmitype/StillImage" />
        <dc:title></dc:title>
      </cc:Work>
    </rdf:RDF>
  </metadata>
  <defs
     id="defs14" />
  <g
     id="g18"
     transform="translate(-475.93418,-166.68827)">
    <path
       style="fill:#fd3400"
       d="M 612,439.84266 C 591.375,399.67907 574.35,366.40891 574.16667,365.90898 573.97295,365.38072 583.26224,365 596.34492,365 h 22.51159 l 15.17585,29.59589 c 8.34672,16.27774 15.51147,29.21524 15.92166,28.75 0.41019,-0.46524 7.34151,-13.78339 15.40293,-29.59589 L 680.01408,365 h -30.41323 -30.41322 l -20.15008,-39.47576 c -11.08255,-21.71166 -20.54987,-39.72283 -21.03849,-40.02482 -0.48862,-0.30198 -9.95494,17.46211 -21.03626,39.47576 L 536.81493,365 h -30.44037 -30.44038 l 20.98229,-41.25 c 11.54025,-22.6875 34.24851,-67.35 50.46279,-99.25 16.21428,-31.9 29.79092,-57.91514 30.17031,-57.81142 0.37938,0.10373 23.50699,44.65373 51.39468,99 l 50.70489,98.81142 22.63645,0.5 22.63646,0.5 -37.0735,73 c -20.39043,40.15 -37.36039,73.30766 -37.71103,73.68368 C 649.78688,512.55971 632.625,480.00625 612,439.84266 Z"
       id="path28" />
    <path
       style="fill:#ffffff;stroke-width:0.922367"
       d="m 1.3909583,197.43787 c 0,-1.36932 98.0612577,-193.5650275 99.6079617,-195.227195 0.39359,-0.4229544 2.37823,2.2749702 4.41032,5.9953879 4.24714,7.7757751 38.84573,74.8044841 67.52754,130.8228071 10.77931,21.05304 22.05773,42.94773 25.06314,48.65488 l 5.46437,10.37663 h -29.86664 -29.86664 l -17.35688,-33.897 c -20.14519,-39.34242 -23.41922,-45.42659 -24.44513,-45.42659 -1.07384,0 -5.393937,8.04302 -24.64738,45.88778 L 60.271218,198.06038 H 30.831089 c -16.192072,0 -29.4401307,-0.28013 -29.4401307,-0.62251 z"
       id="path24"
       transform="translate(475.93418,166.68827)" />
    <path
       style="fill:#ffffff;stroke-width:0.922367"
       d="m 173.21107,342.66161 c -0.84173,-1.0711 -10.91263,-20.11174 -27.69641,-52.36449 -13.22281,-25.40978 -46.352759,-90.32876 -46.352759,-90.82943 0,-0.28508 9.857529,-0.40705 21.905619,-0.27104 l 21.90562,0.24729 10.40793,20.29208 c 12.53238,24.43407 19.63002,37.35588 20.51871,37.35588 0.36206,0 7.45664,-13.31892 15.76574,-29.59759 l 15.10745,-29.5976 8.76249,0.53825 c 4.81937,0.29604 14.51404,0.54039 21.54372,0.54302 11.786,0.004 12.73434,0.13046 12.17908,1.61891 -0.91843,2.46193 -70.71928,139.73532 -72.00264,141.60353 -0.88426,1.28723 -1.31843,1.38517 -2.04455,0.46119 z"
       id="path26"
       transform="translate(475.93418,166.68827)" />
  </g>
</svg>
