<?xml version="1.0" encoding="UTF-8" standalone="no"?>
<svg
   xmlns:dc="http://purl.org/dc/elements/1.1/"
   xmlns:cc="http://creativecommons.org/ns#"
   xmlns:rdf="http://www.w3.org/1999/02/22-rdf-syntax-ns#"
   xmlns:svg="http://www.w3.org/2000/svg"
   xmlns="http://www.w3.org/2000/svg"
   xmlns:sodipodi="http://sodipodi.sourceforge.net/DTD/sodipodi-0.dtd"
   xmlns:inkscape="http://www.inkscape.org/namespaces/inkscape"
   version="1.1"
   id="svg10"
   width="248.98787"
   height="345.49863"
   viewBox="0 0 248.98787 345.49863"
   sodipodi:docname="strava_icon.svg"
   inkscape:version="1.0.2-2 (e86c870879, 2021-01-15)">
  <sodipodi:namedview
     pagecolor="#ffffff"
     bordercolor="#666666"
     borderopacity="1"
     objecttolerance="10"
     gridtolerance="10"
     guidetolerance="10"
     inkscape:pageopacity="0"
     inkscape:pageshadow="2"
     inkscape:window-width="1920"
     inkscape:window-height="1017"
     id="namedview26"
     showgrid="false"
     inkscape:zoom="2.4602124"
     inkscape:cx="124.49393"
     inkscape:cy="172.74931"
     inkscape:window-x="-8"
     inkscape:window-y="-8"
     inkscape:window-maximized="1"
     inkscape:current-layer="g18" />
  <metadata
     id="metadata16">
    <rdf:RDF>
      <cc:Work
         rdf:about="">
        <dc:format>image/svg+xml</dc:format>
        <dc:type
           rdf:resource="http://purl.org/dc/dcmitype/StillImage" />
        <dc:title />
      </cc:Work>
    </rdf:RDF>
  </metadata>
  <defs
     id="defs14" />
  <g
     id="g18"
     transform="translate(-475.93418,-166.68827)">
    <path
       style="fill:#fd3400"
       d="M 612,439.84266 C 591.375,399.67907 574.35,366.40891 574.16667,365.90898 573.97295,365.38072 583.26224,365 596.34492,365 h 22.51159 l 15.17585,29.59589 c 8.34672,16.27774 15.51147,29.21524 15.92166,28.75 0.41019,-0.46524 7.34151,-13.78339 15.40293,-29.59589 L 680.01408,365 h -30.41323 -30.41322 l -20.15008,-39.47576 c -11.08255,-21.71166 -20.54987,-39.72283 -21.03849,-40.02482 -0.48862,-0.30198 -9.95494,17.46211 -21.03626,39.47576 L 536.81493,365 h -30.44037 -30.44038 l 20.98229,-41.25 c 11.54025,-22.6875 34.24851,-67.35 50.46279,-99.25 16.21428,-31.9 29.79092,-57.91514 30.17031,-57.81142 0.37938,0.10373 23.50699,44.65373 51.39468,99 l 50.70489,98.81142 22.63645,0.5 22.63646,0.5 -37.0735,73 c -20.39043,40.15 -37.36039,73.30766 -37.71103,73.68368 C 649.78688,512.55971 632.625,480.00625 612,439.84266 Z"
       id="path28" />
  </g>
</svg>
